{"title":"Justice for Natalee Holloway 2011 DVDrip English Klam","uid":6914421,"size":1118276814,"categoryP":"video","categoryS":"movies","magnet":"?xt=urn:btih:2cc524e4f7ede7f942b895b3227576b538d31bde&amp;dn=Justice+for+Natalee+Holloway+2011+DVDrip+English+Klam&amp;tr=udp%3A%2F%2Ftracker.openbittorrent.com%3A80&amp;tr=udp%3A%2F%2Fopen.demonii.com%3A1337&amp;tr=udp%3A%2F%2Ftracker.coppersurfer.tk%3A6969&amp;tr=udp%3A%2F%2Fexodus.desync.com%3A6969","seeders":0,"leechers":2,"uploader":"Klambake","files":-1,"time":1324976152,"description":"Tracy Pollan, Stephen Amell and Scott Cohen\n\nWe volgen Natalee's moeder Beth terwijl ze tracht de dader van de moord op haar dochter achter tralies te krijgen. In de vier afgelopen jaren wijst al het gevonden bewijs in de richting van Joran van der Sloot, maar hij blijft op vrije voeten. Maar dan blijkt dat hij opnieuw een moord heeft gepleegd.\n\nWe follow Natalee's mother Beth as she tries to get the perpetrator of the murder of her daughter behind bars....\n\n------------------------ Dutch Friends ------------------------\n---------------------------------------------------------------\n- Bezoek ook eens mijn vrienden op: &lt;a href=&quot; http://www.Film-Test.nl&quot; rel=&quot;nofollow&quot; target=&quot;_NEW&quot;&gt; http://www.Film-Test.nl&lt;/a&gt; --\n----- voor mijn Nederlandse Sync. ondertitels ---- en meer ----\n------- http://www.Film-Test.nl ---- voor Films en meer -------\n---------------------------------------------------------------\n\nGeneral:\n\nComplete name                    : Justice for Natalee Holloway.avi\nFormat                           : AVI\nFormat/Info                      : Audio Video Interleave\nFile size                        : 1.04 GiB\nDuration                         : 1h 26mn\nOverall bit rate                 : 1 717 Kbps\n\nVideo:\n\nFormat                           : MPEG-4 Visual\nFormat profile                   : Simple@L3\nFormat settings, BVOP            : No\nFormat settings, QPel            : No\nFormat settings, GMC             : No warppoints\nFormat settings, Matrix          : Default (H.263)\nCodec ID                         : XVID\nCodec ID/Hint                    : XviD\nDuration                         : 1h 26mn\nBit rate                         : 1 514 Kbps\nWidth                            : 720 pixels\nHeight                           : 304 pixels\nDisplay aspect ratio             : 2.35:1\nFrame rate                       : 23.976 fps\nColor space                      : YUV\nChroma subsampling               : 4:2:0\nBit depth                        : 8 bits\nScan type                        : Progressive\nCompression mode                 : Lossy\nBits/(Pixel*Frame)               : 0.289\nStream size                      : 940 MiB (88%)\nWriting library                  : XviD 1.1.2 (UTC 2006-11-01)\n\nAudio:\n\nFormat                           : AC-3\nFormat/Info                      : Audio Coding 3\nMode extension                   : CM (complete main)\nCodec ID                         : 2000\nDuration                         : 1h 26mn\nBit rate mode                    : Constant\nBit rate                         : 192 Kbps\nChannel(s)                       : 2 channels\nChannel positions                : Front: L R\nSampling rate                    : 48.0 KHz\nBit depth                        : 16 bits\nCompression mode                 : Lossy\nStream size                      : 119 MiB (11%)\nAlignment                        : Aligned on interleaves\nInterleave, duration             : 32 ms (0.77 video frame)\nInterleave, preload duration     : 32 ms\n\n","torrent":{"xt":"urn:btih:2cc524e4f7ede7f942b895b3227576b538d31bde","amp;dn":"Justice+for+Natalee+Holloway+2011+DVDrip+English+Klam","amp;tr":["udp%3A%2F%2Ftracker.openbittorrent.com%3A80","udp%3A%2F%2Fopen.demonii.com%3A1337","udp%3A%2F%2Ftracker.coppersurfer.tk%3A6969","udp%3A%2F%2Fexodus.desync.com%3A6969"],"infoHash":"2cc524e4f7ede7f942b895b3227576b538d31bde","infoHashBuffer":{"type":"Buffer","data":[44,197,36,228,247,237,231,249,66,184,149,179,34,117,118,181,56,211,27,222]},"announce":[],"urlList":[]}}